<svg xmlns="http://www.w3.org/2000/svg" xmlns:xlink="http://www.w3.org/1999/xlink" viewBox="0 0 307.49 34.5"><defs><style>.cls-1,.cls-6{fill:none;}.cls-2{fill:#d2232a;}.cls-3{clip-path:url(#clip-path);}.cls-4{opacity:0.38;}.cls-5{clip-path:url(#clip-path-12);}.cls-6{stroke:#000;stroke-width:0.35px;}.cls-7{fill:#6f6f6e;}.cls-8{fill:#21244f;}</style><clipPath id="clip-path" transform="translate(0 -2.4)"><rect class="cls-1" x="194.59" y="11.2" width="112.9" height="17"/></clipPath><clipPath id="clip-path-12" transform="translate(0 -2.4)"><rect class="cls-1" x="177.79" width="6.6" height="37.3"/></clipPath></defs><title>TheOne_Marine_Turkey_Saxdor_Turkey</title><g id="katman_2" data-name="katman 2"><g id="Layer_1" data-name="Layer 1"><rect class="cls-2" x="252.79" y="12" width="2.1" height="2.1"/><rect x="194.59" y="19.5" width="112.9" height="0.3"/><polygon points="230.49 21.9 228.19 23.6 225.89 21.9 224.99 21.9 227.89 24.1 227.89 25.8 228.49 25.8 228.49 24.1 231.29 21.9 230.49 21.9"/><g class="cls-3"><path d="M236.49,24.3h-.4a.55.55,0,0,0-.6.4l-2.3,3.8h.7l.8-1.4.3-.6,1-1.6a.1.1,0,0,1,.1-.1h.4c.1,0,.1,0,.1.1l1,1.6.3.6.8,1.4h.7l-2.3-3.8a.55.55,0,0,0-.6-.4" transform="translate(0 -2.4)"/></g><g class="cls-3"><path d="M271.49,25.4a1.16,1.16,0,0,0,1.2,1.2h3.6a.6.6,0,1,1,0,1.2h-4.8v.6h4.8a1.2,1.2,0,0,0,0-2.4h-3.6a.6.6,0,1,1,0-1.2h4.8v-.6h-4.8a1.29,1.29,0,0,0-1.2,1.2" transform="translate(0 -2.4)"/></g><g class="cls-3"><polygon points="258.09 23.7 253.29 23.7 253.29 21.9 252.69 21.9 252.69 26 253.29 26 253.29 24.2 258.09 24.2 258.09 26 258.69 26 258.69 21.9 258.09 21.9 258.09 23.7"/></g><g class="cls-3"><path d="M242.49,25.4v1.8a1.16,1.16,0,0,0,1.2,1.2h4.8v-.6h-4.8a.65.65,0,0,1-.6-.6V25.4a.65.65,0,0,1,.6-.6h4.8v-.6h-4.8a1.38,1.38,0,0,0-1.2,1.2" transform="translate(0 -2.4)"/></g><g class="cls-3"><polygon points="262.29 22.4 264.99 22.4 264.99 26 265.59 26 265.59 22.4 268.29 22.4 268.29 21.9 262.29 21.9 262.29 22.4"/></g><g class="cls-3"><path d="M266.09,19.6a2.09,2.09,0,0,0,.6-.4,1.27,1.27,0,0,0,.4-.6,1.88,1.88,0,0,0,.2-.8V12.9a2.35,2.35,0,0,0-.2-.8,1.84,1.84,0,0,0-1-1,1.48,1.48,0,0,0-.7-.1h-12.7v2h12a.37.37,0,0,1,.3.1c.1.1.1.2.1.4v3.7c0,.2,0,.3-.1.4a.37.37,0,0,1-.3.1h-12v2h12.7a1.7,1.7,0,0,0,.7-.1" transform="translate(0 -2.4)"/></g><g class="cls-3"><path d="M273.19,19.3a2.09,2.09,0,0,0,.6.4,1.48,1.48,0,0,0,.7.1h10.9a2,2,0,0,0,.7-.1,2.09,2.09,0,0,0,.6-.4,1.27,1.27,0,0,0,.4-.6,1.88,1.88,0,0,0,.2-.8V13a2.35,2.35,0,0,0-.2-.8,1.84,1.84,0,0,0-1-1,1.48,1.48,0,0,0-.7-.1h-10.9a2,2,0,0,0-.7.1,2.09,2.09,0,0,0-.6.4,1.27,1.27,0,0,0-.4.6,2,2,0,0,0-.1.8v4.9a2,2,0,0,0,.1.8,2.09,2.09,0,0,0,.4.6m1.5-5.6c0-.2,0-.3.1-.4a.37.37,0,0,1,.3-.1h9.5a.37.37,0,0,1,.3.1c.1.1.1.2.1.4v3.5c0,.2,0,.3-.1.4a.37.37,0,0,1-.3.1h-9.5c-.1,0-.2,0-.2-.1s-.1-.2-.1-.4V13.7Z" transform="translate(0 -2.4)"/></g><g class="cls-3"><path d="M209.49,19.6a2.09,2.09,0,0,0,.6-.4,1.27,1.27,0,0,0,.4-.6,2,2,0,0,0,.1-.8V16.2a2.2,2.2,0,0,0-.1-.8,1.84,1.84,0,0,0-1-1,1.48,1.48,0,0,0-.7-.1h-10.3c-.2,0-.3-.1-.3-.2v-.6a.37.37,0,0,1,.1-.3c.1,0,.2-.1.3-.1h12v-2h-12.7a1.7,1.7,0,0,0-.7.1,2.09,2.09,0,0,0-.6.4,1.27,1.27,0,0,0-.4.6,2,2,0,0,0-.1.8v1.6a2,2,0,0,0,.1.8,2.09,2.09,0,0,0,.4.6,1.27,1.27,0,0,0,.6.4,1.48,1.48,0,0,0,.7.1h10.2a.37.37,0,0,1,.3.1c.1,0,.1.1.1.3h0v.5a.27.27,0,0,1-.3.3h-12v2h12.7a1.27,1.27,0,0,0,.6-.1" transform="translate(0 -2.4)"/></g><g class="cls-3"><polygon points="222.09 11.2 226.99 17.3 229.59 17.3 222.99 8.8 221.19 8.8 214.69 17.3 217.29 17.3 222.09 11.2"/></g><g class="cls-3"><polygon points="233.19 17.3 236.59 17.3 240.49 14.3 244.49 17.3 247.79 17.3 242.19 13.1 247.79 8.8 244.49 8.8 240.49 11.8 236.59 8.8 233.19 8.8 238.89 13.1 233.19 17.3"/></g><g class="cls-3"><path d="M294.69,17.2h7.4c.9,0,2.2,0,2.6,1a4.81,4.81,0,0,1,.4,1.6h2.1a5,5,0,0,0-.5-2c-.4-.7-.9-.7-.9-.7h.2a1.56,1.56,0,0,0,.8-.6,1.8,1.8,0,0,0,.3-1.1V13.1a2.35,2.35,0,0,0-.2-.8,1.84,1.84,0,0,0-1-1,1.48,1.48,0,0,0-.7-.1h-12.7v8.6h2.1V17.2Zm0-4h9.8c.3,0,.4.1.4.4v1.1c0,.2,0,.3-.1.3s-.2.1-.3.1h-9.8Z" transform="translate(0 -2.4)"/></g><g class="cls-4"><g class="cls-5"><line class="cls-6" x1="181.09" x2="181.09" y2="34.5"/></g></g><polygon class="cls-7" points="116.3 19.62 116.12 20.48 112.75 20.48 111.48 26.43 110.15 26.43 111.42 20.48 108.04 20.48 108.22 19.62 116.3 19.62"/><polygon class="cls-7" points="165.87 19.66 161.65 23.59 161.04 26.46 159.72 26.46 160.31 23.66 157.78 19.66 158.91 19.66 161.04 23.03 164.66 19.66 165.87 19.66"/><polygon class="cls-7" points="140.97 22.66 145.07 26.46 143.74 26.46 140.16 23.1 138.88 23.8 138.32 26.46 136.99 26.46 138.44 19.66 139.76 19.66 139.12 22.68 144.82 19.66 146.52 19.66 140.97 22.66"/><polygon class="cls-7" points="146.7 26.43 147.97 20.48 147.97 20.48 148.15 19.63 156.23 19.63 156.05 20.48 149.29 20.48 148.83 22.65 155.59 22.65 155.44 23.36 148.68 23.36 148.21 25.58 154.97 25.58 154.78 26.43 146.7 26.43"/><path class="cls-7" d="M118.62,28.84a2.14,2.14,0,0,1-1.73-.66,1.63,1.63,0,0,1-.36-1.47l1-4.68h1.34l-.93,4.37a1.18,1.18,0,0,0,.29,1.15,1.56,1.56,0,0,0,1.14.41H122a2.19,2.19,0,0,0,1.32-.42,1.8,1.8,0,0,0,.76-1.14L125,22h1.33l-1,4.68a2.51,2.51,0,0,1-1,1.47,3.07,3.07,0,0,1-2,.66Z" transform="translate(0 -2.4)"/><path class="cls-7" d="M133.39,28.83l-2.38-3a.55.55,0,0,0-.46-.21h-1.29a.93.93,0,0,0-.86.71l-.53,2.55h-1.34L128,22h6.74a2.2,2.2,0,0,1,1.72.59,1.72,1.72,0,0,1-.22,2.33,3.83,3.83,0,0,1-2.22.63h-1.58l2.71,3.26ZM128.68,25h5.25a1.71,1.71,0,0,0,1.2-.38,1.25,1.25,0,0,0,.37-.85c0-.62-.34-.94-1.08-.94h-5.29Z" transform="translate(0 -2.4)"/><path class="cls-7" d="M153.51,15.91l-4.16-4.48a.56.56,0,0,0-.42-.18.94.94,0,0,0-.87.72l-.83,3.94h-1.35l1.45-6.81h1.61l4.15,4.49a.53.53,0,0,0,.42.18.94.94,0,0,0,.87-.71l.84-4h1.35l-1.45,6.81Z" transform="translate(0 -2.4)"/><path class="cls-7" d="M139.28,15.91l-2.38-3.05a.55.55,0,0,0-.46-.21h-1.29a.94.94,0,0,0-.86.71l-.53,2.55h-1.34l1.45-6.81h6.74a2.2,2.2,0,0,1,1.72.59,1.6,1.6,0,0,1,.32,1.4,1.55,1.55,0,0,1-.54.93,3.83,3.83,0,0,1-2.22.63h-1.58L141,15.91Zm-4.71-3.79h5.25a1.71,1.71,0,0,0,1.2-.38,1.25,1.25,0,0,0,.37-.85c0-.62-.34-.93-1.07-.93H135Z" transform="translate(0 -2.4)"/><polygon class="cls-7" points="143.11 13.51 144.55 6.7 145.88 6.7 144.43 13.51 143.11 13.51"/><path class="cls-7" d="M118.23,15.91l.65-3a.55.55,0,0,0-.56-.71.9.9,0,0,0-.67.33l-2.79,3.3h-1.41l-1.4-3.31a.54.54,0,0,0-.52-.33.92.92,0,0,0-.86.71L110,15.91h-1.27L110.2,9.1h1.58L114,14.18a.55.55,0,0,0,.53.33.9.9,0,0,0,.67-.33l4.34-5.08H121l-1.45,6.81Z" transform="translate(0 -2.4)"/><polygon class="cls-7" points="156.43 13.51 157.7 7.55 157.69 7.55 157.88 6.7 165.96 6.7 165.78 7.55 159.03 7.55 158.56 9.72 165.32 9.72 165.17 10.43 158.41 10.43 157.94 12.65 164.69 12.65 164.51 13.51 156.43 13.51"/><path class="cls-7" d="M129.92,15.91l-2-5.08a.56.56,0,0,0-.54-.33.85.85,0,0,0-.67.34l-4.2,5.07H121L126.7,9.1h1.94l2.8,6.81Z" transform="translate(0 -2.4)"/><path class="cls-7" d="M13.2,17.13H9.43a.14.14,0,0,0-.14.12l-.1.47a.09.09,0,0,0,.09.12h1.15a.09.09,0,0,1,.09.12L10,20.2a.1.1,0,0,0,.1.12h.67A.15.15,0,0,0,11,20.2L11.43,18a.15.15,0,0,1,.14-.12H13a.16.16,0,0,0,.15-.12l.1-.47A.09.09,0,0,0,13.2,17.13Z" transform="translate(0 -2.4)"/><path class="cls-7" d="M17,17.25l-.21,1a.16.16,0,0,1-.15.12h-2.2a.09.09,0,0,1-.09-.12l.22-1a.1.1,0,0,0-.1-.12h-.67a.15.15,0,0,0-.14.12l-.3,1.38h0l-.34,1.57a.09.09,0,0,0,.09.12h.67A.16.16,0,0,0,14,20.2l.21-1a.14.14,0,0,1,.14-.12h2.2a.09.09,0,0,1,.09.12l-.2,1a.09.09,0,0,0,.09.12h.67a.15.15,0,0,0,.14-.12l.63-2.95a.09.09,0,0,0-.09-.12h-.67A.16.16,0,0,0,17,17.25Z" transform="translate(0 -2.4)"/><path class="cls-7" d="M21.64,20.2l.1-.47a.09.09,0,0,0-.09-.12H19l.12-.57h2.7a.16.16,0,0,0,.14-.12l.09-.41a.09.09,0,0,0-.09-.12h-2.7l.12-.55H22a.16.16,0,0,0,.15-.12l.1-.47a.1.1,0,0,0-.1-.12H18.69a.16.16,0,0,0-.15.12l-.12.59h0l-.12.55h0l0,.1,0,.14h0l-.33,1.57a.09.09,0,0,0,.09.12H21.5A.15.15,0,0,0,21.64,20.2Z" transform="translate(0 -2.4)"/><path class="cls-7" d="M57.73,29.35h-5a.63.63,0,0,1-.47-.19L40.8,16.78c-.41-.45-1.27-.09-1.41.58L37,28.57a1,1,0,0,1-.94.78H31.59a.61.61,0,0,1-.61-.78L35.11,9.11a1,1,0,0,1,1-.78H41a.67.67,0,0,1,.48.19L53,21c.41.44,1.28.09,1.42-.59L56.77,9.11a1,1,0,0,1,.95-.78H62.2a.62.62,0,0,1,.62.78L58.68,28.57A1,1,0,0,1,57.73,29.35Z" transform="translate(0 -2.4)"/><path class="cls-7" d="M1.64,15.33a8.44,8.44,0,0,1,3.24-4.92,10.08,10.08,0,0,1,6.38-2.08H24.61c2.52,0,4.35.7,5.5,2.08a5.38,5.38,0,0,1,1.16,4.87l-1.52,7.13a8.42,8.42,0,0,1-3.23,4.83,9.93,9.93,0,0,1-6.38,2.11H6.79a6.79,6.79,0,0,1-5.47-2.11A5.47,5.47,0,0,1,.15,22.36Zm18,9.27a4.79,4.79,0,0,0,2.82-.86A3.64,3.64,0,0,0,24,21.46l1.14-5.37a2.41,2.41,0,0,0-.54-2.3,3.21,3.21,0,0,0-2.45-.86H11.83A4.64,4.64,0,0,0,9,13.79a4,4,0,0,0-1.51,2.3L6.36,21.51a2.27,2.27,0,0,0,.55,2.23,3.28,3.28,0,0,0,2.43.86Z" transform="translate(0 -2.4)"/><path class="cls-7" d="M85.92,28.57l.66-3.13a.61.61,0,0,0-.62-.77H68.19L69,20.9H86.77a1,1,0,0,0,.94-.78l.58-2.72a.62.62,0,0,0-.62-.78H69.9L70.68,13H88.44a1,1,0,0,0,1-.78l.66-3.11a.61.61,0,0,0-.61-.78h-23a1,1,0,0,0-.94.78L64.7,13h0l-.78,3.62h0l-.15.68-.19.89h0L61.39,28.57a.61.61,0,0,0,.61.78H85A1,1,0,0,0,85.92,28.57Z" transform="translate(0 -2.4)"/><path class="cls-8" d="M103.49,29.35H92.69A.3.3,0,0,1,92.4,29l.72-4.08a.28.28,0,0,1,.28-.22h10.8a.29.29,0,0,1,.29.35l-.72,4.07A.28.28,0,0,1,103.49,29.35Z" transform="translate(0 -2.4)"/><path class="cls-8" d="M94.6,28.27l3-14a25.17,25.17,0,0,1-3.13-.63l.63-3.52c1.84-.16,4.6-.72,5.68-2.07h4.88l-4.31,20.26Z" transform="translate(0 -2.4)"/></g></g></svg>